<mxfile host="app.diagrams.net" modified="2023-12-08T22:15:33.180Z" agent="Mozilla/5.0 (X11; Linux x86_64; rv:120.0) Gecko/20100101 Firefox/120.0" etag="_WfLqcxLp-xVj8FbGP5N" version="22.1.7" type="github">
  <diagram name="Page-1" id="vgObWZRGqJPjMsXuttVs">
    <mxGraphModel dx="501" dy="254" grid="1" gridSize="10" guides="1" tooltips="1" connect="1" arrows="1" fold="1" page="1" pageScale="1" pageWidth="827" pageHeight="1169" math="0" shadow="0">
      <root>
        <mxCell id="0" />
        <mxCell id="1" parent="0" />
        <mxCell id="OTMyFdFgpiPdGZ-FLGMX-8" value="&lt;font style=&quot;font-size: 18px;&quot;&gt;Planète&lt;/font&gt;" style="swimlane;childLayout=stackLayout;horizontal=1;startSize=50;horizontalStack=0;rounded=1;fontSize=14;fontStyle=0;strokeWidth=2;resizeParent=0;resizeLast=1;shadow=0;dashed=0;align=center;arcSize=4;whiteSpace=wrap;html=1;" vertex="1" parent="1">
          <mxGeometry x="640" y="120" width="160" height="120" as="geometry" />
        </mxCell>
        <mxCell id="OTMyFdFgpiPdGZ-FLGMX-9" value="+nom&lt;br&gt;+circonférence (en km)&lt;br&gt;&lt;div&gt;+distance à la terre (en km)&lt;/div&gt;&lt;div&gt;+documentation &lt;/div&gt;" style="align=left;strokeColor=none;fillColor=none;spacingLeft=4;fontSize=12;verticalAlign=top;resizable=0;rotatable=0;part=1;html=1;" vertex="1" parent="OTMyFdFgpiPdGZ-FLGMX-8">
          <mxGeometry y="50" width="160" height="70" as="geometry" />
        </mxCell>
        <mxCell id="OTMyFdFgpiPdGZ-FLGMX-10" value="&lt;font style=&quot;font-size: 18px;&quot;&gt;Astronaute&lt;/font&gt;" style="swimlane;childLayout=stackLayout;horizontal=1;startSize=50;horizontalStack=0;rounded=1;fontSize=14;fontStyle=0;strokeWidth=2;resizeParent=0;resizeLast=1;shadow=0;dashed=0;align=center;arcSize=4;whiteSpace=wrap;html=1;" vertex="1" parent="1">
          <mxGeometry x="440" y="120" width="160" height="120" as="geometry" />
        </mxCell>
        <mxCell id="OTMyFdFgpiPdGZ-FLGMX-11" value="+nom&lt;br&gt;+état de santé&lt;div&gt;+taille&lt;br&gt;&lt;/div&gt;&lt;div&gt;+poids&lt;/div&gt;" style="align=left;strokeColor=none;fillColor=none;spacingLeft=4;fontSize=12;verticalAlign=top;resizable=0;rotatable=0;part=1;html=1;" vertex="1" parent="OTMyFdFgpiPdGZ-FLGMX-10">
          <mxGeometry y="50" width="160" height="70" as="geometry" />
        </mxCell>
        <mxCell id="OTMyFdFgpiPdGZ-FLGMX-12" value="Mission" style="swimlane;childLayout=stackLayout;horizontal=1;startSize=50;horizontalStack=0;rounded=1;fontSize=14;fontStyle=0;strokeWidth=2;resizeParent=0;resizeLast=1;shadow=0;dashed=0;align=center;arcSize=4;whiteSpace=wrap;html=1;" vertex="1" parent="1">
          <mxGeometry x="30" y="120" width="160" height="120" as="geometry" />
        </mxCell>
        <mxCell id="OTMyFdFgpiPdGZ-FLGMX-13" value="+nom&lt;br&gt;+date de début&lt;div&gt;+date de fin&lt;/div&gt;&lt;div&gt;+statut &lt;/div&gt;" style="align=left;strokeColor=none;fillColor=none;spacingLeft=4;fontSize=12;verticalAlign=top;resizable=0;rotatable=0;part=1;html=1;" vertex="1" parent="OTMyFdFgpiPdGZ-FLGMX-12">
          <mxGeometry y="50" width="160" height="70" as="geometry" />
        </mxCell>
        <mxCell id="OTMyFdFgpiPdGZ-FLGMX-14" value="Vaisseau" style="swimlane;childLayout=stackLayout;horizontal=1;startSize=50;horizontalStack=0;rounded=1;fontSize=14;fontStyle=0;strokeWidth=2;resizeParent=0;resizeLast=1;shadow=0;dashed=0;align=center;arcSize=4;whiteSpace=wrap;html=1;" vertex="1" parent="1">
          <mxGeometry x="240" y="120" width="160" height="120" as="geometry" />
        </mxCell>
        <mxCell id="OTMyFdFgpiPdGZ-FLGMX-15" value="+nom&lt;br&gt;+circonférence (en km)&lt;br&gt;&lt;div&gt;+distance à la terre (en km)&lt;/div&gt;&lt;div&gt;+documentation &lt;/div&gt;" style="align=left;strokeColor=none;fillColor=none;spacingLeft=4;fontSize=12;verticalAlign=top;resizable=0;rotatable=0;part=1;html=1;" vertex="1" parent="OTMyFdFgpiPdGZ-FLGMX-14">
          <mxGeometry y="50" width="160" height="70" as="geometry" />
        </mxCell>
        <mxCell id="OTMyFdFgpiPdGZ-FLGMX-16" value="&lt;i&gt;&lt;font style=&quot;font-size: 24px;&quot;&gt;&lt;b&gt;Model Conceptuelle de Données le MCD&lt;/b&gt;&lt;/font&gt;&lt;/i&gt;" style="text;html=1;strokeColor=none;fillColor=none;align=center;verticalAlign=middle;whiteSpace=wrap;rounded=0;" vertex="1" parent="1">
          <mxGeometry x="40" y="30" width="680" height="60" as="geometry" />
        </mxCell>
        <mxCell id="OTMyFdFgpiPdGZ-FLGMX-18" value="&lt;i&gt;&lt;font style=&quot;font-size: 24px;&quot;&gt;&lt;b&gt;Model Logique de Données le MLD&lt;/b&gt;&lt;/font&gt;&lt;/i&gt; " style="text;html=1;strokeColor=none;fillColor=none;align=center;verticalAlign=middle;whiteSpace=wrap;rounded=0;" vertex="1" parent="1">
          <mxGeometry x="50" y="280" width="680" height="60" as="geometry" />
        </mxCell>
        <mxCell id="OTMyFdFgpiPdGZ-FLGMX-19" value="&lt;font style=&quot;font-size: 18px;&quot;&gt;Planète&lt;/font&gt;" style="swimlane;childLayout=stackLayout;horizontal=1;startSize=50;horizontalStack=0;rounded=1;fontSize=14;fontStyle=0;strokeWidth=2;resizeParent=0;resizeLast=1;shadow=0;dashed=0;align=center;arcSize=4;whiteSpace=wrap;html=1;" vertex="1" parent="1">
          <mxGeometry x="10" y="400" width="160" height="120" as="geometry" />
        </mxCell>
        <mxCell id="OTMyFdFgpiPdGZ-FLGMX-20" value="+nom&lt;br&gt;+circonférence (en km)&lt;br&gt;&lt;div&gt;+distance à la terre (en km)&lt;/div&gt;&lt;div&gt;+documentation &lt;/div&gt;" style="align=left;strokeColor=none;fillColor=none;spacingLeft=4;fontSize=12;verticalAlign=top;resizable=0;rotatable=0;part=1;html=1;" vertex="1" parent="OTMyFdFgpiPdGZ-FLGMX-19">
          <mxGeometry y="50" width="160" height="70" as="geometry" />
        </mxCell>
        <mxCell id="OTMyFdFgpiPdGZ-FLGMX-21" value="&lt;font style=&quot;font-size: 18px;&quot;&gt;Astronaute&lt;/font&gt;" style="swimlane;childLayout=stackLayout;horizontal=1;startSize=50;horizontalStack=0;rounded=1;fontSize=14;fontStyle=0;strokeWidth=2;resizeParent=0;resizeLast=1;shadow=0;dashed=0;align=center;arcSize=4;whiteSpace=wrap;html=1;" vertex="1" parent="1">
          <mxGeometry x="320" y="760" width="160" height="120" as="geometry" />
        </mxCell>
        <mxCell id="OTMyFdFgpiPdGZ-FLGMX-22" value="+nom&lt;br&gt;+état de santé&lt;div&gt;+taille&lt;br&gt;&lt;/div&gt;&lt;div&gt;+poids&lt;/div&gt;" style="align=left;strokeColor=none;fillColor=none;spacingLeft=4;fontSize=12;verticalAlign=top;resizable=0;rotatable=0;part=1;html=1;" vertex="1" parent="OTMyFdFgpiPdGZ-FLGMX-21">
          <mxGeometry y="50" width="160" height="70" as="geometry" />
        </mxCell>
        <mxCell id="OTMyFdFgpiPdGZ-FLGMX-23" value="Mission" style="swimlane;childLayout=stackLayout;horizontal=1;startSize=50;horizontalStack=0;rounded=1;fontSize=14;fontStyle=0;strokeWidth=2;resizeParent=0;resizeLast=1;shadow=0;dashed=0;align=center;arcSize=4;whiteSpace=wrap;html=1;" vertex="1" parent="1">
          <mxGeometry x="330" y="400" width="160" height="120" as="geometry" />
        </mxCell>
        <mxCell id="OTMyFdFgpiPdGZ-FLGMX-24" value="+nom&lt;br&gt;+date de début&lt;div&gt;+date de fin&lt;/div&gt;&lt;div&gt;+statut &lt;/div&gt;" style="align=left;strokeColor=none;fillColor=none;spacingLeft=4;fontSize=12;verticalAlign=top;resizable=0;rotatable=0;part=1;html=1;" vertex="1" parent="OTMyFdFgpiPdGZ-FLGMX-23">
          <mxGeometry y="50" width="160" height="70" as="geometry" />
        </mxCell>
        <mxCell id="OTMyFdFgpiPdGZ-FLGMX-25" value="Vaisseau" style="swimlane;childLayout=stackLayout;horizontal=1;startSize=50;horizontalStack=0;rounded=1;fontSize=14;fontStyle=0;strokeWidth=2;resizeParent=0;resizeLast=1;shadow=0;dashed=0;align=center;arcSize=4;whiteSpace=wrap;html=1;" vertex="1" parent="1">
          <mxGeometry x="640" y="390" width="160" height="120" as="geometry" />
        </mxCell>
        <mxCell id="OTMyFdFgpiPdGZ-FLGMX-26" value="+nom&lt;br&gt;+circonférence (en km)&lt;br&gt;&lt;div&gt;+distance à la terre (en km)&lt;/div&gt;&lt;div&gt;+documentation &lt;/div&gt;" style="align=left;strokeColor=none;fillColor=none;spacingLeft=4;fontSize=12;verticalAlign=top;resizable=0;rotatable=0;part=1;html=1;" vertex="1" parent="OTMyFdFgpiPdGZ-FLGMX-25">
          <mxGeometry y="50" width="160" height="70" as="geometry" />
        </mxCell>
        <mxCell id="OTMyFdFgpiPdGZ-FLGMX-45" value="" style="endArrow=none;html=1;rounded=0;" edge="1" parent="1">
          <mxGeometry relative="1" as="geometry">
            <mxPoint x="170" y="480" as="sourcePoint" />
            <mxPoint x="210" y="480" as="targetPoint" />
          </mxGeometry>
        </mxCell>
        <mxCell id="OTMyFdFgpiPdGZ-FLGMX-46" value="1" style="resizable=0;html=1;whiteSpace=wrap;align=right;verticalAlign=bottom;" connectable="0" vertex="1" parent="OTMyFdFgpiPdGZ-FLGMX-45">
          <mxGeometry x="1" relative="1" as="geometry" />
        </mxCell>
        <mxCell id="OTMyFdFgpiPdGZ-FLGMX-47" value="" style="endArrow=none;html=1;rounded=0;" edge="1" parent="1">
          <mxGeometry relative="1" as="geometry">
            <mxPoint x="280" y="480" as="sourcePoint" />
            <mxPoint x="320" y="480" as="targetPoint" />
          </mxGeometry>
        </mxCell>
        <mxCell id="OTMyFdFgpiPdGZ-FLGMX-48" value="1" style="resizable=0;html=1;whiteSpace=wrap;align=right;verticalAlign=bottom;" connectable="0" vertex="1" parent="OTMyFdFgpiPdGZ-FLGMX-47">
          <mxGeometry x="1" relative="1" as="geometry" />
        </mxCell>
      </root>
    </mxGraphModel>
  </diagram>
</mxfile>
